<svg width="116" height="32" viewBox="0 0 116 32" fill="none" xmlns="http://www.w3.org/2000/svg">
<g clip-path="url(#clip0_1316_1292)">
<path d="M79.337 16.2397C78.5052 16.7163 77.7686 17.3424 77.1643 18.0867C76.4125 19.0073 75.8877 20.0918 75.6322 21.2526C75.3572 22.6398 75.4934 24.0771 76.0241 25.3878C75.5697 25.095 75.1569 24.7421 74.797 24.3388C73.9228 23.3285 73.3849 22.0711 73.2578 20.741C73.5901 19.9641 74.0527 19.2498 74.6257 18.6288C75.8782 17.3189 77.5403 16.476 79.337 16.2397Z" fill="url(#paint0_linear_1316_1292)"/>
<path d="M77.1668 18.0864C77.0132 18.2439 76.8807 18.4206 76.7726 18.6121C76.1039 19.8067 76.6694 21.2148 77.0072 22.2545C77.4757 23.6616 78.3551 24.8959 79.5318 25.7982C80.045 26.1939 80.6083 26.5198 81.207 26.7675C80.3771 26.8824 79.5333 26.8483 78.7153 26.6666C77.6902 26.436 76.7288 25.9816 75.8998 25.3359C75.4712 24.4457 75.2567 23.4676 75.2734 22.4798C75.3372 20.8309 76.0121 19.2649 77.1668 18.0864Z" fill="url(#paint1_linear_1316_1292)"/>
<path d="M78.6418 23.8272C79.481 23.3638 80.2273 22.7493 80.8432 22.0146C81.6094 21.106 82.1512 20.0299 82.4249 18.8732C82.7217 17.4906 82.6081 16.0513 82.0981 14.7324C82.5479 15.0323 82.955 15.3917 83.3086 15.8006C84.1667 16.8245 84.6848 18.0903 84.791 19.4221C84.4466 20.1937 83.9728 20.9007 83.3901 21.5125C82.1171 22.8026 80.442 23.6192 78.6418 23.8272Z" fill="url(#paint2_linear_1316_1292)"/>
<path d="M80.8408 22.0146C80.9968 21.8596 81.132 21.685 81.2431 21.4952C81.9305 20.3113 81.3873 18.8945 81.0658 17.8496C80.6195 16.4353 79.7597 15.1873 78.5973 14.2666C78.0904 13.8629 77.5323 13.5282 76.9375 13.2711C77.7692 13.1692 78.6123 13.2167 79.4273 13.4112C80.4487 13.6579 81.4028 14.1273 82.2216 14.786C82.6361 15.6828 82.8352 16.6641 82.803 17.6516C82.7133 19.2992 82.0138 20.8545 80.8408 22.0146Z" fill="url(#paint3_linear_1316_1292)"/>
<path d="M37.2273 1.49801C36.0681 3.5967 34.9524 5.61423 33.8802 7.55059C33.4252 8.37094 32.9579 9.21955 32.4782 10.0964C31.9986 10.9733 31.5299 11.8277 31.072 12.6596C30.6098 13.4887 30.1751 14.2771 29.7679 15.025C29.3607 15.7729 29.0021 16.4251 28.692 16.9817C28.2935 17.7064 27.895 18.4158 27.4966 19.1101C27.0981 19.8043 26.73 20.4732 26.3924 21.1167C26.0577 21.7559 25.7723 22.3451 25.5361 22.8842C25.3289 23.3348 25.1735 23.8074 25.0731 24.293C25.0301 24.4366 25.0238 24.5888 25.055 24.7354C25.0861 24.8821 25.1536 25.0185 25.2513 25.1322C25.3391 25.2285 25.4463 25.305 25.5658 25.3568C25.6853 25.4085 25.8145 25.4342 25.9447 25.4322C26.1694 25.4225 26.3904 25.3717 26.5967 25.2822C26.871 25.1703 27.1245 25.013 27.3466 24.817C27.609 24.5872 27.8419 24.3258 28.0399 24.0387C28.2668 23.7089 28.4495 23.3507 28.5833 22.9734L29.2919 24.1126C29.1141 24.723 28.8577 25.3077 28.529 25.8518C28.217 26.3733 27.8377 26.8513 27.4009 27.2737C26.9868 27.6749 26.5086 28.0041 25.986 28.2477C25.479 28.4844 24.9262 28.6068 24.3667 28.6064C23.6234 28.6267 22.8862 28.4679 22.2171 28.1433C21.6195 27.8346 21.1618 27.3099 20.9369 26.6758C20.6834 26.0062 20.6428 25.1416 20.8152 24.0822C20.9877 23.0227 21.4274 21.7545 22.1345 20.2775C20.7086 19.2107 19.0634 18.4741 17.3181 18.1209C16.4892 19.8848 15.6329 21.5994 14.749 23.2647C13.9271 24.8293 12.9616 26.3141 11.8647 27.6998C10.9186 28.9068 9.78913 29.958 8.51755 30.8152C7.36084 31.5918 5.99832 32.0044 4.60524 32.0001C3.44604 32.0001 2.53897 31.7254 1.88402 31.1761C1.23343 30.6326 0.791055 29.8805 0.632082 29.0477C0.454209 28.071 0.505549 27.0662 0.782054 26.1127C1.09035 24.9553 1.5812 23.8544 2.23613 22.8516C2.97115 21.7196 3.85992 20.6952 4.87693 19.8079C5.98416 18.8347 7.24337 18.0497 8.60449 17.4839C7.91945 17.1763 7.29687 16.7451 6.76788 16.2121C6.21293 15.6603 5.76554 15.0101 5.44856 14.2945C5.11592 13.5395 4.93075 12.7277 4.90302 11.9031C4.87508 11.0054 5.05199 10.1132 5.42031 9.29419C5.77327 8.45302 6.3415 7.71968 7.06782 7.16796C7.81042 6.6238 8.63515 6.20179 9.51084 5.91787C10.4604 5.59821 11.441 5.3796 12.4364 5.26566C13.4695 5.14681 14.4838 5.06202 15.4793 5.01129C16.4747 4.96056 17.4224 4.91998 18.3222 4.88954C19.1024 4.87443 19.8805 4.80177 20.65 4.67214C21.234 4.08098 21.8665 3.53992 22.541 3.05464C23.1764 2.60022 23.8665 2.2277 24.5949 1.94586C24.8492 1.86542 25.1361 1.78064 25.4535 1.6915C25.7688 1.60129 26.0919 1.54088 26.4185 1.51105C26.7371 1.48086 27.0584 1.50141 27.3705 1.57193C27.6707 1.63742 27.9454 1.78844 28.1617 2.00674C28.2829 2.13086 28.3674 2.28616 28.4058 2.4554C28.4441 2.62464 28.4349 2.8012 28.379 2.9655C28.226 3.39273 27.9574 3.76906 27.6031 4.05253C27.1066 4.46644 26.5514 4.80421 25.9556 5.05477C25.2014 5.38177 24.4068 5.60625 23.593 5.72221C23.0686 6.44057 22.5902 7.1914 22.1606 7.97019C21.6868 8.80937 21.2144 9.70799 20.7435 10.666C20.2726 11.6241 19.8031 12.6183 19.3351 13.6488C18.8728 14.6779 18.3961 15.7214 17.9049 16.7795C19.6744 17.1561 21.3557 17.8675 22.8583 18.8753C23.2394 18.1781 23.6886 17.3947 24.2059 16.5251C24.7232 15.6555 25.2673 14.746 25.8382 13.7967C26.4091 12.8488 26.9945 11.89 27.5944 10.9204C28.1943 9.95076 28.7739 9.00866 29.3332 8.09411C30.6576 5.97657 32.0276 3.77932 33.4433 1.50236L37.2273 1.49801ZM3.80974 30.2326C4.57047 30.2326 5.30946 29.8978 6.02672 29.2282C6.85097 28.4244 7.56898 27.5184 8.16327 26.5323C8.94419 25.2666 9.65738 23.9604 10.2998 22.619C11.0156 21.1406 11.7546 19.6029 12.5168 18.0057C11.0289 18.1709 9.58731 18.6235 8.27194 19.3384C7.10903 19.9713 6.04925 20.7777 5.12906 21.7298C4.30989 22.5763 3.62196 23.5407 3.08814 24.5909C2.63414 25.4478 2.32565 26.3743 2.17527 27.3324C2.05076 28.0295 2.13156 28.7479 2.40783 29.3999C2.67083 29.9565 3.13813 30.2326 3.80974 30.2326ZM10.5846 16.8099C11.4735 16.5657 12.3855 16.4149 13.3058 16.3599C14.194 14.5003 15.1359 12.6828 16.1313 10.9073C17.067 9.22626 18.1416 7.62638 19.3438 6.12441C18.5091 6.22442 17.6021 6.3737 16.6225 6.57227C15.6509 6.76994 14.6955 7.04028 13.7644 7.38102C12.8628 7.70954 12.0073 8.15309 11.2192 8.70067C10.5674 9.1552 10.0169 9.73993 9.60242 10.418C9.18792 11.096 8.91844 11.8526 8.81097 12.6401C8.73664 13.224 8.76015 13.8162 8.88052 14.3924C8.98829 14.91 9.20136 15.3999 9.50649 15.8316C9.79075 16.232 10.1586 16.5658 10.5846 16.8099Z" fill="#393938"/>
<path d="M50.2815 9.20074L45.7172 21.4211C45.5216 21.9299 45.5476 22.2908 45.7911 22.5082C45.9307 22.6185 46.0946 22.6942 46.2691 22.729C46.4437 22.7637 46.624 22.7566 46.7952 22.7082C47.3045 22.5849 47.775 22.3369 48.1645 21.9864C48.6924 21.5252 49.1048 20.9466 49.3686 20.2971L49.9881 21.4233C49.7446 22.0666 49.4062 22.6697 48.9839 23.2126C48.5722 23.7468 48.0938 24.2261 47.5603 24.6387C47.0472 25.0349 46.4827 25.3596 45.8824 25.604C45.3208 25.8378 44.7192 25.9604 44.1109 25.9649C43.5855 25.9796 43.064 25.8693 42.5895 25.6432C42.1695 25.4369 41.8294 25.0975 41.6223 24.6779C41.3885 24.1763 41.2875 23.6231 41.3289 23.0712C41.3806 22.3118 41.553 21.5654 41.8396 20.8602L46.2279 9.20074H44.1479L45.1694 7.1506H46.9952L47.4299 5.944L51.8095 5.02002L51.0075 7.1506H54.2938L53.2744 9.20074H50.2815Z" fill="#393938"/>
<path d="M74.7989 26.8759C74.5599 27.2922 74.2865 27.6878 73.9817 28.0586C73.6148 28.5083 73.1894 28.9068 72.7167 29.2435C72.1876 29.6179 71.6109 29.9198 71.0018 30.1414C70.3258 30.3884 69.611 30.5121 68.8913 30.5066C66.9685 30.5066 65.3746 30.1319 64.1096 29.3826C62.8921 28.6733 61.9032 27.6299 61.2602 26.3759C60.5937 25.0389 60.2357 23.5694 60.2125 22.0756C60.1678 20.372 60.3735 18.6711 60.8233 17.0274C61.321 15.1947 62.0384 13.4289 62.9598 11.7684C63.9319 10.0014 65.1213 8.36318 66.5005 6.89194C65.8115 6.89194 65.129 6.92238 64.4595 6.98108C63.7956 7.04132 63.1399 7.17177 62.5034 7.37024C61.8461 7.5805 61.2159 7.86727 60.6255 8.22464C59.9619 8.63416 59.3578 9.13307 58.8302 9.70735C58.3024 10.2332 57.8862 10.8603 57.6065 11.551C57.362 12.1442 57.2415 12.7812 57.2522 13.4228C57.2609 13.9846 57.3953 14.5373 57.6456 15.0403C57.8623 15.4927 58.2079 15.8709 58.6389 16.1274L57.4696 16.7796C57.0561 16.7113 56.6645 16.5467 56.3263 16.2991C55.8775 15.9918 55.478 15.6179 55.1417 15.1903C54.751 14.7011 54.4177 14.1686 54.1485 13.6033C53.8598 13.0061 53.6585 12.3706 53.5507 11.7162C53.4421 11.0459 53.4421 10.3624 53.5507 9.69213C53.6704 8.97541 53.9497 8.29479 54.368 7.70069C55.1287 6.54844 56.0706 5.77592 57.1935 5.38314C58.3297 4.98802 59.5272 4.79882 60.7298 4.82441C61.9749 4.84448 63.2167 4.95931 64.4443 5.16791C65.5519 5.36369 66.6693 5.49868 67.7915 5.57229C68.6836 4.73338 69.6488 3.97596 70.6758 3.30909C71.7293 2.62823 72.8398 2.03976 73.9947 1.55027C76.4368 0.516517 79.0632 -0.0108249 81.715 0.000168403C82.7119 0.000168403 83.5009 0.165397 84.0819 0.495854C84.6124 0.769439 85.0312 1.21908 85.2665 1.76768C85.479 2.33227 85.5213 2.94679 85.3882 3.53519C85.245 4.23845 84.9731 4.90918 84.5862 5.51359C84.1423 6.21515 83.6016 6.85046 82.98 7.40067C82.3087 8.00691 81.5522 8.51157 80.7347 8.8986C79.5002 9.47835 78.4526 9.75808 77.5918 9.73779C76.7311 9.7175 76.0689 9.50009 75.6053 9.08557C75.377 8.88549 75.1945 8.63868 75.07 8.36185C74.9455 8.08502 74.8819 7.78466 74.8837 7.48111C74.8889 6.75179 75.1383 6.04527 75.5922 5.47445C75.1923 5.57446 74.775 5.66577 74.3403 5.74404C73.9766 5.8252 73.5593 5.90999 73.0883 5.9984C72.6167 6.08971 72.1364 6.1832 71.6451 6.28321C70.4024 7.63474 69.3093 9.11663 68.3849 10.7031C67.4583 12.2828 66.6819 13.946 66.0658 15.6708C65.4902 17.2519 65.0794 18.8882 64.8399 20.5537C64.6217 21.9482 64.6217 23.3682 64.8399 24.7627C64.9981 25.8679 65.4816 26.9009 66.2288 27.7303C66.9359 28.4782 67.9241 28.8529 69.1934 28.8543C69.7686 28.8581 70.3401 28.7618 70.8822 28.5695C71.3887 28.389 71.8689 28.1419 72.3102 27.8347C72.7223 27.5475 73.0931 27.2052 73.4122 26.8172C73.6994 26.4717 73.9378 26.0884 74.1208 25.678L74.7989 26.8759ZM81.4389 1.31982C79.9231 1.3132 78.4238 1.63509 77.0441 2.26337C75.6181 2.91428 74.299 3.77778 73.1318 4.82441C73.9533 4.61827 74.7618 4.36346 75.5531 4.06131C76.2421 3.78956 76.8224 3.54606 77.2919 3.32648C77.7731 3.10236 78.2366 2.84219 78.6786 2.54817L79.1415 3.77651C77.9432 4.35626 77.118 4.97514 76.6659 5.63316C76.2138 6.29118 76.0595 6.84556 76.203 7.29632C76.3464 7.74635 76.7746 8.01593 77.481 8.10507C78.1874 8.1942 79.1133 7.95941 80.2566 7.40067C81.141 6.9907 81.9397 6.41676 82.6105 5.70925C83.1788 5.14656 83.6076 4.45859 83.8624 3.70042C83.9636 3.42279 83.9939 3.1243 83.9506 2.83199C83.9074 2.53968 83.7919 2.26279 83.6146 2.02639C83.2524 1.5568 82.5271 1.32127 81.4389 1.31982Z" fill="#393938"/>
<path d="M93.2204 11.6852C93.5385 11.6698 93.8549 11.7394 94.1372 11.8869C94.4195 12.0344 94.6574 12.2544 94.8265 12.5243L95.8414 9.82654C96.0051 9.428 96.0276 9.10409 95.9088 8.85482C95.7914 8.60483 95.5328 8.47875 95.1329 8.47875H94.8612L95.4067 7.19182C95.5619 7.17002 95.7157 7.13954 95.8675 7.10052C96.0244 7.05884 96.1842 7.02905 96.3456 7.01139C96.5217 6.99119 96.6987 6.98103 96.8759 6.98096C97.9104 6.98096 98.5588 7.29037 98.821 7.90919C99.0833 8.52802 98.9594 9.50698 98.4494 10.8461L94.9721 20.1937C94.846 20.5937 94.8678 20.8719 95.0416 21.0328C95.1431 21.1147 95.2635 21.17 95.3918 21.1935C95.5201 21.217 95.6522 21.2081 95.7762 21.1676C96.1548 21.0655 96.504 20.8756 96.7955 20.6132C97.1898 20.2704 97.4974 19.8391 97.6931 19.3546L98.156 20.1937C97.9751 20.6729 97.7231 21.1221 97.4084 21.5262C97.102 21.9247 96.7455 22.282 96.3478 22.5893C95.9647 22.8842 95.5436 23.1263 95.096 23.3088C94.6772 23.4836 94.2284 23.5752 93.7746 23.5784C93.2929 23.6014 92.8164 23.4704 92.4141 23.2045C92.2346 23.0646 92.0846 22.8906 91.9727 22.6925C91.8608 22.4944 91.7892 22.2761 91.7621 22.0501C91.2822 22.4984 90.7416 22.8768 90.1561 23.174C89.6778 23.4269 89.1473 23.5653 88.6065 23.5784C88.0644 23.6026 87.5306 23.4382 87.096 23.1132C86.6933 22.7864 86.4029 22.3417 86.2658 21.8415C86.096 21.2226 86.0452 20.5772 86.1159 19.9393C86.1961 19.141 86.3931 18.3588 86.7005 17.6177C87.4974 15.5786 88.4725 14.0801 89.6258 13.1221C90.7791 12.1642 91.9773 11.6852 93.2204 11.6852ZM92.1055 19.7741C92.1598 19.635 92.2641 19.3589 92.4185 18.9502C92.5728 18.5415 92.7575 18.0568 92.9748 17.4959C93.1921 16.9351 93.4247 16.3242 93.6703 15.6547C93.9159 14.9851 94.1549 14.3308 94.3896 13.6982C94.2999 13.5654 94.1782 13.4574 94.0358 13.3841C93.8934 13.3108 93.7348 13.2745 93.5747 13.2786C92.9024 13.2786 92.2852 13.5931 91.723 14.2221C91.1608 14.8511 90.5262 15.9445 89.8192 17.5024C89.5826 18.0347 89.378 18.5806 89.2063 19.1372C89.0671 19.5694 88.9803 20.0168 88.9477 20.4698C88.9154 20.7801 88.9775 21.0931 89.1259 21.3676C89.1962 21.4779 89.2953 21.567 89.4125 21.6252C89.5297 21.6835 89.6605 21.7086 89.7909 21.698C90.1385 21.6869 90.4768 21.5834 90.7711 21.398C91.1539 21.1692 91.5097 20.8979 91.8317 20.5893C91.8662 20.4575 91.9075 20.3277 91.9555 20.2002C92.0012 20.0698 92.0512 19.935 92.1055 19.7741Z" fill="#393938"/>
<path d="M102.909 21.9016C103.313 21.895 103.713 21.8215 104.093 21.6842C104.914 21.4035 105.66 20.9405 106.275 20.3297C106.569 20.0385 106.825 19.7113 107.036 19.3558L107.499 20.195C107.033 21.2678 106.21 22.1459 105.169 22.6799C103.976 23.2984 102.648 23.6071 101.305 23.5778C100.623 23.6004 99.9472 23.4397 99.3484 23.1125C98.8238 22.8146 98.3949 22.3735 98.1117 21.8407C97.8082 21.2525 97.6495 20.6003 97.6487 19.9384C97.6412 19.1459 97.7797 18.3588 98.0573 17.6165C98.7456 15.6802 99.6657 14.2069 100.818 13.1966C101.857 12.2283 103.222 11.6853 104.643 11.6748C105.386 11.6748 105.949 11.8922 106.33 12.327C106.711 12.7603 106.936 13.3093 106.969 13.8858C107.006 14.5568 106.884 15.2271 106.614 15.8425C106.325 16.544 105.884 17.1729 105.323 17.6839C104.558 18.4019 103.547 18.7988 102.498 18.7927H100.759C100.524 19.6927 100.61 20.437 101.018 21.0254C101.425 21.6139 102.055 21.9059 102.909 21.9016ZM103.971 13.0336C103.723 13.168 103.505 13.3514 103.33 13.5728C103.053 13.9008 102.802 14.2513 102.583 14.6207C102.329 15.0395 102.07 15.5091 101.807 16.0294C101.542 16.5536 101.31 17.0939 101.113 17.647H102.065C102.261 17.6514 102.456 17.6165 102.638 17.5445C102.82 17.4724 102.986 17.3646 103.126 17.2274C103.478 16.8545 103.755 16.4176 103.943 15.9403C104.148 15.5346 104.321 15.1138 104.46 14.6815C104.573 14.3514 104.646 14.0092 104.678 13.6619C104.711 13.4479 104.663 13.2293 104.543 13.0488C104.432 12.9184 104.243 12.914 103.971 13.0336Z" fill="#393938"/>
<path d="M112.081 14.0226C112.602 13.9017 113.146 13.9174 113.659 14.0682C114.127 14.2027 114.544 14.4737 114.856 14.8465C115.186 15.2619 115.397 15.7583 115.467 16.2836C115.561 16.9611 115.511 17.6509 115.319 18.3076C115.096 19.1909 114.738 20.0343 114.257 20.8078C113.861 21.4342 113.354 21.9831 112.761 22.4275C112.211 22.8292 111.594 23.1282 110.938 23.3101C110.273 23.4917 109.586 23.5823 108.897 23.5797C108.401 23.6073 107.913 23.4526 107.523 23.1449C107.185 22.8534 106.943 22.4671 106.828 22.0361C106.698 21.5395 106.671 21.0218 106.747 20.5143C106.822 19.9341 106.997 19.3713 107.264 18.8511C107.463 18.4112 107.71 17.9942 107.999 17.6076C108.212 17.3193 108.459 17.0573 108.734 16.8271C108.928 16.6623 109.148 16.5308 109.386 16.4379C109.543 16.377 109.709 16.3417 109.877 16.3336C110.096 16.3154 110.315 16.3721 110.498 16.4945C110.681 16.617 110.817 16.7978 110.883 17.0075C111.047 17.4583 111.019 18.0025 110.801 18.6403C110.587 19.2886 110.218 19.8751 109.727 20.3491C109.326 20.73 108.795 20.9437 108.242 20.9469C108.123 20.9425 108.005 20.9228 107.89 20.8882C107.842 21.2283 107.904 21.5749 108.066 21.8774C108.147 22.0074 108.263 22.1125 108.4 22.1812C108.537 22.2498 108.69 22.2794 108.842 22.2666C109.203 22.2618 109.556 22.158 109.862 21.9666C110.222 21.7452 110.54 21.461 110.801 21.1274C111.113 20.7353 111.387 20.3137 111.618 19.8686C111.881 19.3699 112.099 18.849 112.27 18.312C112.766 16.8756 112.852 15.8749 112.529 15.3096C112.205 14.7443 111.53 14.6349 110.503 14.9813C110.398 15.0223 110.284 15.0395 110.172 15.0316C110.059 15.0237 109.949 14.991 109.851 14.9357C109.664 14.8207 109.52 14.6472 109.442 14.4421C109.346 14.193 109.295 13.9287 109.292 13.6617C109.286 13.3457 109.337 13.0313 109.442 12.7333C109.654 12.0722 110.028 11.4743 110.529 10.9941C110.929 10.6129 111.459 10.3984 112.011 10.394C112.537 10.394 112.881 10.6114 113.033 11.068C113.185 11.5246 113.155 12.0724 112.937 12.7312C112.863 12.9116 112.755 13.1355 112.611 13.4051C112.485 13.6496 112.304 13.8611 112.081 14.0226Z" fill="#393938"/>
<path d="M34.5598 7.0918C34.7473 7.63836 34.8641 8.20668 34.9075 8.78291C34.9238 9.08411 34.9238 9.38596 34.9075 9.68716C34.8979 10.4287 34.8039 11.1667 34.6271 11.8869C34.4173 12.686 34.0837 13.4473 33.6384 14.1432C32.9199 15.1214 32.2539 16.1372 31.6435 17.1863C30.5569 19.0535 30.3613 19.8339 30.2918 20.1208C29.9526 21.5458 30.038 23.0389 30.5374 24.416C31.0486 25.0522 31.7414 25.5178 32.5235 25.7507C33.3057 25.9837 34.1402 25.973 34.9162 25.7202C35.718 25.468 35.9201 25.105 35.968 25.0115C36.0823 24.7715 36.1195 24.5019 36.0744 24.2399C36.0501 24.5309 35.9165 24.8019 35.7007 24.9985C35.2856 25.3354 34.6902 25.1593 34.2555 25.0485C33.5601 24.861 32.9375 24.4678 32.4692 23.9204C31.6587 22.9248 31.5392 21.4402 32.0998 20.0773C32.2048 19.6962 32.3362 19.3229 32.4932 18.96C32.9517 17.921 33.4558 17.3841 33.9013 16.7864C34.6509 15.7651 35.2016 14.6118 35.5246 13.3867C35.8151 12.3685 35.8716 11.2977 35.6898 10.2545C35.591 9.79925 35.464 9.35061 35.3095 8.91116C35.1014 8.28828 34.8509 7.68041 34.5598 7.0918Z" fill="url(#paint4_linear_1316_1292)"/>
<path d="M36.0701 24.2289C36.0664 24.3462 36.0391 24.4616 35.9897 24.568C35.8832 24.7703 35.7049 24.9254 35.4898 25.0028C35.2617 25.0788 35.077 25.0028 34.7249 24.9028C34.4017 24.7979 34.1 24.636 33.8339 24.4246C33.6771 24.3072 33.5316 24.1755 33.3993 24.0311C32.9567 23.4968 32.6795 22.8448 32.6018 22.1553C32.5414 21.5972 32.5887 21.0327 32.7409 20.4924C32.9886 19.5055 33.3819 18.9143 33.9078 18.0318C34.8618 16.432 35.3399 15.6408 35.6463 14.7713C36.0631 13.7203 36.2362 12.5884 36.1526 11.4608C36.075 10.6861 35.8923 9.92554 35.6094 9.20018C35.338 8.46611 34.9868 7.76414 34.5619 7.10693C34.6336 7.24822 34.7358 7.45907 34.8488 7.71991C35.0913 8.27149 35.2946 8.83951 35.4572 9.41972C35.7775 10.7179 35.8006 12.0718 35.5246 13.3801C35.3566 14.0259 35.1183 14.6513 34.814 15.2452C34.5628 15.7864 34.257 16.3007 33.9013 16.7798C33.5515 17.1863 33.2299 17.6163 32.9386 18.0666C32.8126 18.2839 32.7213 18.4818 32.5322 18.873C32.2497 19.4556 31.3066 21.4814 32.0129 23.1204C32.0745 23.2704 32.1471 23.4158 32.2302 23.5551C32.4475 23.9311 32.9864 24.8332 34.0056 25.1658C34.2816 25.264 34.5746 25.3054 34.867 25.2875C35.1594 25.2696 35.4452 25.1927 35.7072 25.0615C35.8691 24.9771 35.9955 24.8375 36.0635 24.668C36.1123 24.5261 36.1146 24.3723 36.0701 24.2289Z" fill="url(#paint5_linear_1316_1292)"/>
<path d="M36.0312 18.4557C36.0276 18.746 36.0407 19.0363 36.0703 19.3252C36.0835 19.5403 36.1366 19.7511 36.2268 19.9468C36.2367 19.9628 36.2455 19.9795 36.2529 19.9968C36.3729 20.2832 36.5941 20.5154 36.8744 20.6489C37.0822 20.7347 37.3108 20.7565 37.5311 20.7116C37.7514 20.6667 37.9532 20.5571 38.1109 20.3968C38.3 20.1794 38.3391 19.9034 38.3282 19.5273C38.3087 18.4144 37.9305 17.8232 37.7132 16.9189C37.5691 16.2996 37.5251 15.6611 37.5828 15.0278C37.6024 15.3408 37.685 15.6016 37.7132 15.782C37.8114 16.5208 38.0187 17.2408 38.3282 17.9187C38.5042 18.3013 38.4738 18.2514 38.5694 18.5057C38.7717 19.0325 38.8244 19.605 38.7215 20.1599C38.7115 20.217 38.6984 20.2736 38.6824 20.3294L38.665 20.3881C38.582 20.6004 38.4563 20.7933 38.2955 20.9549C38.1347 21.1164 37.9424 21.2431 37.7306 21.3271C37.4951 21.4028 37.2455 21.4237 37.0007 21.3883C36.7559 21.3529 36.5225 21.2621 36.3181 21.1228C36.1471 20.9958 36.0038 20.8353 35.897 20.651C35.7901 20.4668 35.7219 20.2627 35.6966 20.0512C35.6821 19.7706 35.7167 19.4896 35.7987 19.2208C35.8558 18.96 35.9335 18.7042 36.0312 18.4557Z" fill="url(#paint6_linear_1316_1292)"/>
<path d="M30.5376 24.4159C30.5908 24.5816 30.6584 24.7424 30.7397 24.8963C31.5872 26.4961 33.6625 26.8526 34.0624 26.9265C34.9879 27.0878 35.9388 27.0195 36.8318 26.7277C37.7248 26.4359 38.5326 25.9295 39.1844 25.2528C40.0108 24.4157 40.5189 23.3161 40.6208 22.1441C40.7228 20.9721 40.4123 19.8012 39.7429 18.8339C39.6277 18.6731 39.4561 18.4622 39.0062 17.8449C38.6715 17.4186 38.3665 16.9698 38.0935 16.5016C37.8504 16.0307 37.6797 15.5258 37.5872 15.0039C37.5106 15.667 37.5979 16.3388 37.8414 16.9602C38.024 17.4102 38.2456 17.6906 38.5173 18.4818C38.6468 18.8054 38.7203 19.1486 38.7346 19.4969C38.7652 19.9098 38.6615 20.3215 38.439 20.6707C38.224 20.9989 37.8962 21.2371 37.5176 21.3402C37.2895 21.4007 37.0496 21.4012 36.8212 21.3418C36.5928 21.2824 36.3836 21.165 36.2138 21.0011C36.0304 20.8468 35.8878 20.6497 35.7987 20.4272C35.7162 20.1909 35.6902 19.9385 35.7226 19.6903C35.7383 19.502 35.7726 19.3156 35.8248 19.1339C35.8769 18.9187 35.9415 18.7068 36.0182 18.4992C35.8904 18.6139 35.7747 18.7414 35.6727 18.8796C35.3396 19.357 35.153 19.9213 35.1359 20.5033C35.0961 21.1326 35.1878 21.7634 35.4054 22.3553C35.5032 22.6574 35.7118 22.9335 35.9226 23.529C36.0856 23.9986 36.0877 24.1355 36.0747 24.2398C36.0051 24.7898 35.4662 25.1267 35.2793 25.2462C34.9755 25.4233 34.6393 25.5378 34.2906 25.5832C33.7923 25.7012 33.2762 25.7241 32.7694 25.6505C32.372 25.5921 31.9866 25.4695 31.6285 25.2875C31.2104 25.0726 30.8395 24.7763 30.5376 24.4159Z" fill="url(#paint7_linear_1316_1292)"/>
</g>
<defs>
<linearGradient id="paint0_linear_1316_1292" x1="73.5724" y1="23.7735" x2="81.7308" y2="17.6607" gradientUnits="userSpaceOnUse">
<stop stop-color="#232323"/>
<stop offset="0.85" stop-color="white"/>
</linearGradient>
<linearGradient id="paint1_linear_1316_1292" x1="74.7168" y1="18.9955" x2="80.2484" y2="26.6463" gradientUnits="userSpaceOnUse">
<stop offset="0.2" stop-color="white"/>
<stop offset="1" stop-color="#2E2E2E"/>
</linearGradient>
<linearGradient id="paint2_linear_1316_1292" x1="84.5241" y1="16.385" x2="76.2706" y2="22.3688" gradientUnits="userSpaceOnUse">
<stop stop-color="#232323"/>
<stop offset="0.85" stop-color="white"/>
</linearGradient>
<linearGradient id="paint3_linear_1316_1292" x1="83.3048" y1="21.1443" x2="77.8942" y2="13.4073" gradientUnits="userSpaceOnUse">
<stop offset="0.2" stop-color="white"/>
<stop offset="1" stop-color="#2E2E2E"/>
</linearGradient>
<linearGradient id="paint4_linear_1316_1292" x1="32.9473" y1="25.868" x2="33.9344" y2="7.05922" gradientUnits="userSpaceOnUse">
<stop stop-color="white"/>
<stop offset="0.78" stop-color="#878787"/>
</linearGradient>
<linearGradient id="paint5_linear_1316_1292" x1="33.3732" y1="25.0354" x2="37.0737" y2="7.63117" gradientUnits="userSpaceOnUse">
<stop stop-color="#1E1E1E"/>
<stop offset="0.54" stop-color="#C6C6C6"/>
<stop offset="0.67" stop-color="white"/>
</linearGradient>
<linearGradient id="paint6_linear_1316_1292" x1="36.4898" y1="21.2011" x2="39.0616" y2="15.6848" gradientUnits="userSpaceOnUse">
<stop stop-color="#212121"/>
<stop offset="0.93" stop-color="#DDDDDD"/>
</linearGradient>
<linearGradient id="paint7_linear_1316_1292" x1="33.4322" y1="27.1134" x2="40.1995" y2="16.6944" gradientUnits="userSpaceOnUse">
<stop stop-color="#232323"/>
<stop offset="0.5" stop-color="white"/>
</linearGradient>
<clipPath id="clip0_1316_1292">
<rect width="115" height="32" fill="white" transform="translate(0.51709)"/>
</clipPath>
</defs>
</svg>
