<svg width="115" height="32" viewBox="0 0 115 32" fill="none" xmlns="http://www.w3.org/2000/svg">
<g clip-path="url(#clip0_402_3568)">
<path d="M78.8199 16.2397C77.9881 16.7163 77.2515 17.3424 76.6472 18.0867C75.8955 19.0073 75.3706 20.0918 75.1151 21.2526C74.8401 22.6398 74.9763 24.0771 75.507 25.3878C75.0526 25.095 74.6398 24.7421 74.2799 24.3388C73.4057 23.3285 72.8678 22.0711 72.7407 20.741C73.073 19.9641 73.5356 19.2498 74.1086 18.6288C75.3611 17.3189 77.0232 16.476 78.8199 16.2397Z" fill="url(#paint0_linear_402_3568)"/>
<path d="M76.6497 18.0864C76.4961 18.2439 76.3636 18.4206 76.2555 18.6121C75.5868 19.8067 76.1523 21.2148 76.4902 22.2545C76.9586 23.6616 77.838 24.8959 79.0147 25.7982C79.5279 26.1939 80.0912 26.5198 80.6899 26.7675C79.86 26.8824 79.0162 26.8483 78.1982 26.6666C77.1732 26.436 76.2117 25.9816 75.3827 25.3359C74.9542 24.4457 74.7396 23.4676 74.7563 22.4798C74.8201 20.8309 75.495 19.2649 76.6497 18.0864Z" fill="url(#paint1_linear_402_3568)"/>
<path d="M78.1247 23.8272C78.9639 23.3638 79.7102 22.7493 80.3261 22.0146C81.0923 21.106 81.6341 20.0299 81.9078 18.8732C82.2046 17.4906 82.091 16.0513 81.5811 14.7324C82.0308 15.0323 82.438 15.3917 82.7915 15.8006C83.6496 16.8245 84.1678 18.0903 84.2739 19.4221C83.9295 20.1937 83.4557 20.9007 82.873 21.5125C81.6001 22.8026 79.9249 23.6192 78.1247 23.8272Z" fill="url(#paint2_linear_402_3568)"/>
<path d="M80.3237 22.0146C80.4797 21.8596 80.6149 21.685 80.7261 21.4952C81.4134 20.3113 80.8702 18.8945 80.5487 17.8496C80.1024 16.4353 79.2426 15.1873 78.0802 14.2666C77.5733 13.8629 77.0152 13.5282 76.4204 13.2711C77.2521 13.1692 78.0952 13.2167 78.9102 13.4112C79.9316 13.6579 80.8857 14.1273 81.7045 14.786C82.119 15.6828 82.3181 16.6641 82.2859 17.6516C82.1962 19.2992 81.4967 20.8545 80.3237 22.0146Z" fill="url(#paint3_linear_402_3568)"/>
<path d="M36.7103 1.49801C35.5511 3.5967 34.4353 5.61423 33.3631 7.55059C32.9081 8.37094 32.4408 9.21955 31.9612 10.0964C31.4815 10.9733 31.0128 11.8277 30.5549 12.6596C30.0927 13.4887 29.658 14.2771 29.2508 15.025C28.8436 15.7729 28.485 16.4251 28.1749 16.9817C27.7764 17.7064 27.378 18.4158 26.9795 19.1101C26.581 19.8043 26.213 20.4732 25.8753 21.1167C25.5406 21.7559 25.2552 22.3451 25.019 22.8842C24.8118 23.3348 24.6565 23.8074 24.556 24.293C24.513 24.4366 24.5067 24.5888 24.5379 24.7354C24.569 24.8821 24.6365 25.0185 24.7343 25.1322C24.822 25.2285 24.9292 25.305 25.0487 25.3568C25.1682 25.4085 25.2974 25.4342 25.4276 25.4322C25.6523 25.4225 25.8733 25.3717 26.0797 25.2822C26.3539 25.1703 26.6074 25.013 26.8295 24.817C27.0919 24.5872 27.3248 24.3258 27.5229 24.0387C27.7497 23.7089 27.9324 23.3507 28.0662 22.9734L28.7748 24.1126C28.597 24.723 28.3406 25.3077 28.0119 25.8518C27.6999 26.3733 27.3207 26.8513 26.8838 27.2737C26.4698 27.6749 25.9915 28.0041 25.4689 28.2477C24.9619 28.4844 24.4091 28.6068 23.8496 28.6064C23.1063 28.6267 22.3691 28.4679 21.7 28.1433C21.1024 27.8346 20.6447 27.3099 20.4198 26.6758C20.1663 26.0062 20.1257 25.1416 20.2981 24.0822C20.4706 23.0227 20.9103 21.7545 21.6175 20.2775C20.1915 19.2107 18.5463 18.4741 16.801 18.1209C15.9721 19.8848 15.1158 21.5994 14.2319 23.2647C13.41 24.8293 12.4445 26.3141 11.3477 27.6998C10.4015 28.9068 9.27204 29.958 8.00046 30.8152C6.84375 31.5918 5.48123 32.0044 4.08815 32.0001C2.92895 32.0001 2.02188 31.7254 1.36693 31.1761C0.71634 30.6326 0.273965 29.8805 0.114992 29.0477C-0.0628804 28.071 -0.0115407 27.0662 0.264964 26.1127C0.573256 24.9553 1.06411 23.8544 1.71904 22.8516C2.45406 21.7196 3.34283 20.6952 4.35984 19.8079C5.46707 18.8347 6.72628 18.0497 8.0874 17.4839C7.40236 17.1763 6.77978 16.7451 6.25079 16.2121C5.69584 15.6603 5.24845 15.0101 4.93147 14.2945C4.59883 13.5395 4.41366 12.7277 4.38593 11.9031C4.35799 11.0054 4.5349 10.1132 4.90322 9.29419C5.25618 8.45302 5.82441 7.71968 6.55073 7.16796C7.29333 6.6238 8.11806 6.20179 8.99375 5.91787C9.9433 5.59821 10.9239 5.3796 11.9193 5.26566C12.9524 5.14681 13.9667 5.06202 14.9622 5.01129C15.9577 4.96056 16.9053 4.91998 17.8051 4.88954C18.5854 4.87443 19.3634 4.80177 20.1329 4.67214C20.7169 4.08098 21.3494 3.53992 22.0239 3.05464C22.6593 2.60022 23.3494 2.2277 24.0779 1.94586C24.3322 1.86542 24.6191 1.78064 24.9364 1.6915C25.2517 1.60129 25.5748 1.54088 25.9014 1.51105C26.22 1.48086 26.5413 1.50141 26.8534 1.57193C27.1536 1.63742 27.4284 1.78844 27.6446 2.00674C27.7658 2.13086 27.8503 2.28616 27.8887 2.4554C27.927 2.62464 27.9178 2.8012 27.8619 2.9655C27.7089 3.39273 27.4403 3.76906 27.086 4.05253C26.5895 4.46644 26.0343 4.80421 25.4385 5.05477C24.6843 5.38177 23.8897 5.60625 23.0759 5.72221C22.5515 6.44057 22.0731 7.1914 21.6435 7.97019C21.1697 8.80937 20.6973 9.70799 20.2264 10.666C19.7555 11.6241 19.286 12.6183 18.818 13.6488C18.3557 14.6779 17.879 15.7214 17.3878 16.7795C19.1573 17.1561 20.8386 17.8675 22.3412 18.8753C22.7223 18.1781 23.1715 17.3947 23.6888 16.5251C24.2061 15.6555 24.7502 14.746 25.3211 13.7967C25.892 12.8488 26.4774 11.89 27.0773 10.9204C27.6772 9.95076 28.2568 9.00866 28.8161 8.09411C30.1405 5.97657 31.5105 3.77932 32.9262 1.50236L36.7103 1.49801ZM3.29265 30.2326C4.05338 30.2326 4.79237 29.8978 5.50963 29.2282C6.33388 28.4244 7.05189 27.5184 7.64618 26.5323C8.4271 25.2666 9.14029 23.9604 9.78273 22.619C10.4985 21.1406 11.2375 19.6029 11.9997 18.0057C10.5118 18.1709 9.07022 18.6235 7.75485 19.3384C6.59194 19.9713 5.53216 20.7777 4.61197 21.7298C3.7928 22.5763 3.10487 23.5407 2.57105 24.5909C2.11705 25.4478 1.80856 26.3743 1.65818 27.3324C1.53367 28.0295 1.61447 28.7479 1.89074 29.3999C2.15374 29.9565 2.62104 30.2326 3.29265 30.2326ZM10.0675 16.8099C10.9564 16.5657 11.8684 16.4149 12.7887 16.3599C13.6769 14.5003 14.6188 12.6828 15.6142 10.9073C16.5499 9.22626 17.6245 7.62638 18.8267 6.12441C17.992 6.22442 17.085 6.3737 16.1054 6.57227C15.1338 6.76994 14.1784 7.04028 13.2473 7.38102C12.3457 7.70954 11.4902 8.15309 10.7021 8.70067C10.0503 9.1552 9.49983 9.73993 9.08533 10.418C8.67083 11.096 8.40135 11.8526 8.29388 12.6401C8.21955 13.224 8.24306 13.8162 8.36343 14.3924C8.4712 14.91 8.68427 15.3999 8.9894 15.8316C9.27366 16.232 9.6415 16.5658 10.0675 16.8099Z" fill="white"/>
<path d="M49.7644 9.20074L45.2001 21.4211C45.0045 21.9299 45.0305 22.2908 45.274 22.5082C45.4136 22.6185 45.5775 22.6942 45.752 22.729C45.9266 22.7637 46.1069 22.7566 46.2781 22.7082C46.7874 22.5849 47.2579 22.3369 47.6474 21.9864C48.1753 21.5252 48.5877 20.9466 48.8516 20.2971L49.471 21.4233C49.2275 22.0666 48.8891 22.6697 48.4669 23.2126C48.0552 23.7468 47.5767 24.2261 47.0432 24.6387C46.5301 25.0349 45.9656 25.3596 45.3653 25.604C44.8037 25.8378 44.2021 25.9604 43.5939 25.9649C43.0684 25.9796 42.547 25.8693 42.0724 25.6432C41.6524 25.4369 41.3124 25.0975 41.1052 24.6779C40.8714 24.1763 40.7704 23.6231 40.8118 23.0712C40.8635 22.3118 41.0359 21.5654 41.3226 20.8602L45.7109 9.20074H43.6308L44.6524 7.1506H46.4781L46.9128 5.944L51.2924 5.02002L50.4904 7.1506H53.7767L52.7573 9.20074H49.7644Z" fill="white"/>
<path d="M74.2818 26.8759C74.0428 27.2922 73.7695 27.6878 73.4646 28.0586C73.0977 28.5083 72.6723 28.9068 72.1996 29.2435C71.6705 29.6179 71.0938 29.9198 70.4847 30.1414C69.8087 30.3884 69.0939 30.5121 68.3742 30.5066C66.4514 30.5066 64.8575 30.1319 63.5925 29.3826C62.375 28.6733 61.3861 27.6299 60.7431 26.3759C60.0766 25.0389 59.7186 23.5694 59.6954 22.0756C59.6507 20.372 59.8565 18.6711 60.3062 17.0274C60.8039 15.1947 61.5213 13.4289 62.4427 11.7684C63.4148 10.0014 64.6043 8.36318 65.9834 6.89194C65.2944 6.89194 64.6119 6.92238 63.9425 6.98108C63.2785 7.04132 62.6228 7.17177 61.9863 7.37024C61.329 7.5805 60.6988 7.86727 60.1084 8.22464C59.4448 8.63416 58.8407 9.13307 58.3131 9.70735C57.7853 10.2332 57.3691 10.8603 57.0894 11.551C56.8449 12.1442 56.7244 12.7812 56.7351 13.4228C56.7438 13.9846 56.8783 14.5373 57.1285 15.0403C57.3452 15.4927 57.6908 15.8709 58.1218 16.1274L56.9525 16.7796C56.539 16.7113 56.1474 16.5467 55.8092 16.2991C55.3604 15.9918 54.9609 15.6179 54.6247 15.1903C54.2339 14.7011 53.9006 14.1686 53.6314 13.6033C53.3427 13.0061 53.1415 12.3706 53.0337 11.7162C52.925 11.0459 52.925 10.3624 53.0337 9.69213C53.1533 8.97541 53.4326 8.29479 53.8509 7.70069C54.6116 6.54844 55.5535 5.77592 56.6764 5.38314C57.8126 4.98802 59.0101 4.79882 60.2127 4.82441C61.4578 4.84448 62.6996 4.95931 63.9272 5.16791C65.0348 5.36369 66.1522 5.49868 67.2744 5.57229C68.1665 4.73338 69.1317 3.97596 70.1587 3.30909C71.2122 2.62823 72.3227 2.03976 73.4776 1.55027C75.9197 0.516517 78.5461 -0.0108249 81.1979 0.000168403C82.1948 0.000168403 82.9838 0.165397 83.5648 0.495854C84.0953 0.769439 84.5141 1.21908 84.7494 1.76768C84.9619 2.33227 85.0042 2.94679 84.8711 3.53519C84.7279 4.23845 84.456 4.90918 84.0691 5.51359C83.6252 6.21515 83.0845 6.85046 82.4629 7.40067C81.7916 8.00691 81.0351 8.51157 80.2176 8.8986C78.9831 9.47835 77.9355 9.75808 77.0748 9.73779C76.214 9.7175 75.5519 9.50009 75.0882 9.08557C74.86 8.88549 74.6774 8.63868 74.5529 8.36185C74.4284 8.08502 74.3649 7.78466 74.3666 7.48111C74.3718 6.75179 74.6213 6.04527 75.0751 5.47445C74.6752 5.57446 74.2579 5.66577 73.8232 5.74404C73.4595 5.8252 73.0422 5.90999 72.5713 5.9984C72.0996 6.08971 71.6193 6.1832 71.1281 6.28321C69.8853 7.63474 68.7922 9.11663 67.8678 10.7031C66.9412 12.2828 66.1648 13.946 65.5487 15.6708C64.9731 17.2519 64.5623 18.8882 64.3228 20.5537C64.1046 21.9482 64.1046 23.3682 64.3228 24.7627C64.4811 25.8679 64.9645 26.9009 65.7117 27.7303C66.4188 28.4782 67.407 28.8529 68.6763 28.8543C69.2515 28.8581 69.823 28.7618 70.3652 28.5695C70.8716 28.389 71.3518 28.1419 71.7931 27.8347C72.2052 27.5475 72.576 27.2052 72.8951 26.8172C73.1823 26.4717 73.4207 26.0884 73.6037 25.678L74.2818 26.8759ZM80.9219 1.31982C79.406 1.3132 77.9067 1.63509 76.527 2.26337C75.101 2.91428 73.7819 3.77778 72.6147 4.82441C73.4362 4.61827 74.2448 4.36346 75.036 4.06131C75.725 3.78956 76.3053 3.54606 76.7748 3.32648C77.256 3.10236 77.7195 2.84219 78.1615 2.54817L78.6245 3.77651C77.4261 4.35626 76.6009 4.97514 76.1488 5.63316C75.6968 6.29118 75.5424 6.84556 75.6859 7.29632C75.8293 7.74635 76.2575 8.01593 76.9639 8.10507C77.6703 8.1942 78.5962 7.95941 79.7395 7.40067C80.6239 6.9907 81.4226 6.41676 82.0934 5.70925C82.6617 5.14656 83.0905 4.45859 83.3453 3.70042C83.4465 3.42279 83.4768 3.1243 83.4335 2.83199C83.3903 2.53968 83.2748 2.26279 83.0975 2.02639C82.7353 1.5568 82.0101 1.32127 80.9219 1.31982Z" fill="white"/>
<path d="M92.7033 11.6852C93.0214 11.6698 93.3378 11.7394 93.6201 11.8869C93.9024 12.0344 94.1403 12.2544 94.3094 12.5243L95.3243 9.82654C95.488 9.428 95.5105 9.10409 95.3917 8.85482C95.2743 8.60483 95.0157 8.47875 94.6158 8.47875H94.3442L94.8897 7.19182C95.0448 7.17002 95.1986 7.13954 95.3504 7.10052C95.5073 7.05884 95.6671 7.02905 95.8285 7.01139C96.0046 6.99119 96.1816 6.98103 96.3588 6.98096C97.3933 6.98096 98.0417 7.29037 98.3039 7.90919C98.5662 8.52802 98.4423 9.50698 97.9323 10.8461L94.455 20.1937C94.3289 20.5937 94.3507 20.8719 94.5245 21.0328C94.626 21.1147 94.7464 21.17 94.8747 21.1935C95.003 21.217 95.1351 21.2081 95.2591 21.1676C95.6377 21.0655 95.9869 20.8756 96.2784 20.6132C96.6727 20.2704 96.9803 19.8391 97.176 19.3546L97.6389 20.1937C97.458 20.6729 97.206 21.1221 96.8913 21.5262C96.5849 21.9247 96.2284 22.282 95.8307 22.5893C95.4476 22.8842 95.0265 23.1263 94.5789 23.3088C94.1601 23.4836 93.7113 23.5752 93.2575 23.5784C92.7758 23.6014 92.2993 23.4704 91.897 23.2045C91.7175 23.0646 91.5675 22.8906 91.4556 22.6925C91.3437 22.4944 91.2722 22.2761 91.245 22.0501C90.7651 22.4984 90.2245 22.8768 89.639 23.174C89.1607 23.4269 88.6302 23.5653 88.0894 23.5784C87.5473 23.6026 87.0135 23.4382 86.5789 23.1132C86.1762 22.7864 85.8859 22.3417 85.7487 21.8415C85.5789 21.2226 85.5281 20.5772 85.5988 19.9393C85.679 19.141 85.876 18.3588 86.1834 17.6177C86.9803 15.5786 87.9554 14.0801 89.1087 13.1221C90.262 12.1642 91.4602 11.6852 92.7033 11.6852ZM91.5884 19.7741C91.6427 19.635 91.7471 19.3589 91.9014 18.9502C92.0557 18.5415 92.2404 18.0568 92.4577 17.4959C92.6751 16.9351 92.9076 16.3242 93.1532 15.6547C93.3988 14.9851 93.6378 14.3308 93.8725 13.6982C93.7828 13.5654 93.6612 13.4574 93.5187 13.3841C93.3763 13.3108 93.2177 13.2745 93.0576 13.2786C92.3853 13.2786 91.7681 13.5931 91.2059 14.2221C90.6437 14.8511 90.0091 15.9445 89.3021 17.5024C89.0655 18.0347 88.8609 18.5806 88.6892 19.1372C88.55 19.5694 88.4632 20.0168 88.4306 20.4698C88.3983 20.7801 88.4604 21.0931 88.6088 21.3676C88.6791 21.4779 88.7782 21.567 88.8954 21.6252C89.0126 21.6835 89.1434 21.7086 89.2738 21.698C89.6214 21.6869 89.9597 21.5834 90.254 21.398C90.6368 21.1692 90.9926 20.8979 91.3146 20.5893C91.3491 20.4575 91.3904 20.3277 91.4384 20.2002C91.4841 20.0698 91.5341 19.935 91.5884 19.7741Z" fill="white"/>
<path d="M102.392 21.9016C102.796 21.895 103.196 21.8215 103.576 21.6842C104.397 21.4035 105.143 20.9405 105.758 20.3297C106.052 20.0385 106.308 19.7113 106.519 19.3558L106.982 20.195C106.516 21.2678 105.692 22.1459 104.652 22.6799C103.459 23.2984 102.131 23.6071 100.787 23.5778C100.106 23.6004 99.4301 23.4397 98.8313 23.1125C98.3067 22.8146 97.8778 22.3735 97.5946 21.8407C97.2911 21.2525 97.1324 20.6003 97.1316 19.9384C97.1241 19.1459 97.2627 18.3588 97.5403 17.6165C98.2285 15.6802 99.1487 14.2069 100.301 13.1966C101.34 12.2283 102.705 11.6853 104.126 11.6748C104.869 11.6748 105.432 11.8922 105.813 12.327C106.194 12.7603 106.419 13.3093 106.452 13.8858C106.489 14.5568 106.367 15.2271 106.097 15.8425C105.808 16.544 105.367 17.1729 104.806 17.6839C104.041 18.4019 103.03 18.7988 101.981 18.7927H100.242C100.007 19.6927 100.093 20.437 100.501 21.0254C100.908 21.6139 101.538 21.9059 102.392 21.9016ZM103.454 13.0336C103.206 13.168 102.988 13.3514 102.813 13.5728C102.535 13.9008 102.285 14.2513 102.065 14.6207C101.812 15.0395 101.553 15.5091 101.29 16.0294C101.025 16.5536 100.793 17.0939 100.596 17.647H101.548C101.744 17.6514 101.939 17.6165 102.121 17.5445C102.303 17.4724 102.469 17.3646 102.609 17.2274C102.961 16.8545 103.238 16.4176 103.426 15.9403C103.63 15.5346 103.803 15.1138 103.943 14.6815C104.056 14.3514 104.129 14.0092 104.161 13.6619C104.194 13.4479 104.146 13.2293 104.026 13.0488C103.915 12.9184 103.726 12.914 103.454 13.0336Z" fill="white"/>
<path d="M111.564 14.0226C112.085 13.9017 112.628 13.9174 113.142 14.0682C113.609 14.2027 114.026 14.4737 114.339 14.8465C114.668 15.2619 114.879 15.7583 114.95 16.2836C115.044 16.9611 114.994 17.6509 114.802 18.3076C114.579 19.1909 114.221 20.0343 113.739 20.8078C113.344 21.4342 112.837 21.9831 112.244 22.4275C111.694 22.8292 111.077 23.1282 110.421 23.3101C109.755 23.4917 109.069 23.5823 108.38 23.5797C107.884 23.6073 107.395 23.4526 107.006 23.1449C106.668 22.8534 106.426 22.4671 106.31 22.0361C106.181 21.5395 106.154 21.0218 106.23 20.5143C106.305 19.9341 106.48 19.3713 106.747 18.8511C106.946 18.4112 107.193 17.9942 107.482 17.6076C107.695 17.3193 107.942 17.0573 108.217 16.8271C108.411 16.6623 108.631 16.5308 108.869 16.4379C109.026 16.377 109.192 16.3417 109.36 16.3336C109.579 16.3154 109.798 16.3721 109.981 16.4945C110.164 16.617 110.299 16.7978 110.366 17.0075C110.53 17.4583 110.502 18.0025 110.284 18.6403C110.07 19.2886 109.701 19.8751 109.21 20.3491C108.809 20.73 108.278 20.9437 107.725 20.9469C107.606 20.9425 107.488 20.9228 107.373 20.8882C107.325 21.2283 107.387 21.5749 107.549 21.8774C107.63 22.0074 107.746 22.1125 107.883 22.1812C108.019 22.2498 108.173 22.2794 108.325 22.2666C108.686 22.2618 109.039 22.158 109.345 21.9666C109.705 21.7452 110.023 21.461 110.284 21.1274C110.596 20.7353 110.87 20.3137 111.101 19.8686C111.364 19.3699 111.582 18.849 111.753 18.312C112.248 16.8756 112.335 15.8749 112.012 15.3096C111.688 14.7443 111.013 14.6349 109.986 14.9813C109.88 15.0223 109.767 15.0395 109.655 15.0316C109.542 15.0237 109.432 14.991 109.334 14.9357C109.147 14.8207 109.003 14.6472 108.925 14.4421C108.829 14.193 108.778 13.9287 108.775 13.6617C108.769 13.3457 108.82 13.0313 108.925 12.7333C109.137 12.0722 109.511 11.4743 110.012 10.9941C110.412 10.6129 110.942 10.3984 111.494 10.394C112.02 10.394 112.364 10.6114 112.516 11.068C112.668 11.5246 112.637 12.0724 112.42 12.7312C112.346 12.9116 112.238 13.1355 112.094 13.4051C111.968 13.6496 111.786 13.8611 111.564 14.0226Z" fill="white"/>
<path d="M34.0427 7.0918C34.2302 7.63836 34.3471 8.20668 34.3904 8.78291C34.4067 9.08411 34.4067 9.38596 34.3904 9.68716C34.3809 10.4287 34.2868 11.1667 34.1101 11.8869C33.9002 12.686 33.5666 13.4473 33.1213 14.1432C32.4028 15.1214 31.7368 16.1372 31.1264 17.1863C30.0398 19.0535 29.8442 19.8339 29.7747 20.1208C29.4355 21.5458 29.5209 23.0389 30.0203 24.416C30.5315 25.0522 31.2243 25.5178 32.0064 25.7507C32.7886 25.9837 33.6231 25.973 34.3991 25.7202C35.201 25.468 35.4031 25.105 35.4509 25.0115C35.5652 24.7715 35.6024 24.5019 35.5573 24.2399C35.533 24.5309 35.3995 24.8019 35.1836 24.9985C34.7685 25.3354 34.1731 25.1593 33.7385 25.0485C33.043 24.861 32.4204 24.4678 31.9522 23.9204C31.1416 22.9248 31.0221 21.4402 31.5827 20.0773C31.6877 19.6962 31.8191 19.3229 31.9761 18.96C32.4346 17.921 32.9387 17.3841 33.3842 16.7864C34.1338 15.7651 34.6845 14.6118 35.0075 13.3867C35.298 12.3685 35.3545 11.2977 35.1727 10.2545C35.0739 9.79925 34.9469 9.35061 34.7924 8.91116C34.5844 8.28828 34.3339 7.68041 34.0427 7.0918Z" fill="url(#paint4_linear_402_3568)"/>
<path d="M35.553 24.2289C35.5493 24.3462 35.522 24.4616 35.4726 24.568C35.3661 24.7703 35.1878 24.9254 34.9728 25.0028C34.7446 25.0788 34.5599 25.0028 34.2078 24.9028C33.8846 24.7979 33.5829 24.636 33.3168 24.4246C33.16 24.3072 33.0145 24.1755 32.8822 24.0311C32.4396 23.4968 32.1624 22.8448 32.0847 22.1553C32.0244 21.5972 32.0716 21.0327 32.2238 20.4924C32.4715 19.5055 32.8648 18.9143 33.3907 18.0318C34.3447 16.432 34.8228 15.6408 35.1292 14.7713C35.546 13.7203 35.7191 12.5884 35.6356 11.4608C35.558 10.6861 35.3752 9.92554 35.0923 9.20018C34.8209 8.46611 34.4697 7.76414 34.0448 7.10693C34.1165 7.24822 34.2187 7.45907 34.3317 7.71991C34.5742 8.27149 34.7775 8.83951 34.9402 9.41972C35.2605 10.7179 35.2835 12.0718 35.0075 13.3801C34.8395 14.0259 34.6012 14.6513 34.2969 15.2452C34.0457 15.7864 33.7399 16.3007 33.3842 16.7798C33.0344 17.1863 32.7128 17.6163 32.4215 18.0666C32.2955 18.2839 32.2042 18.4818 32.0151 18.873C31.7326 19.4556 30.7895 21.4814 31.4958 23.1204C31.5574 23.2704 31.63 23.4158 31.7131 23.5551C31.9304 23.9311 32.4693 24.8332 33.4885 25.1658C33.7645 25.264 34.0575 25.3054 34.3499 25.2875C34.6424 25.2696 34.9281 25.1927 35.1901 25.0615C35.352 24.9771 35.4784 24.8375 35.5465 24.668C35.5952 24.5261 35.5975 24.3723 35.553 24.2289Z" fill="url(#paint5_linear_402_3568)"/>
<path d="M35.5141 18.4557C35.5105 18.746 35.5236 19.0363 35.5533 19.3252C35.5664 19.5403 35.6195 19.7511 35.7097 19.9468C35.7196 19.9628 35.7284 19.9795 35.7358 19.9968C35.8558 20.2832 36.077 20.5154 36.3573 20.6489C36.5651 20.7347 36.7938 20.7565 37.014 20.7116C37.2343 20.6667 37.4362 20.5571 37.5938 20.3968C37.7829 20.1794 37.822 19.9034 37.8111 19.5273C37.7916 18.4144 37.4134 17.8232 37.1961 16.9189C37.052 16.2996 37.008 15.6611 37.0657 15.0278C37.0853 15.3408 37.1679 15.6016 37.1961 15.782C37.2943 16.5208 37.5016 17.2408 37.8111 17.9187C37.9871 18.3013 37.9567 18.2514 38.0523 18.5057C38.2546 19.0325 38.3073 19.605 38.2045 20.1599C38.1944 20.217 38.1813 20.2736 38.1653 20.3294L38.1479 20.3881C38.065 20.6004 37.9392 20.7933 37.7784 20.9549C37.6176 21.1164 37.4254 21.2431 37.2135 21.3271C36.978 21.4028 36.7284 21.4237 36.4836 21.3883C36.2388 21.3529 36.0054 21.2621 35.801 21.1228C35.63 20.9958 35.4867 20.8353 35.3799 20.651C35.273 20.4668 35.2048 20.2627 35.1795 20.0512C35.165 19.7706 35.1996 19.4896 35.2816 19.2208C35.3387 18.96 35.4165 18.7042 35.5141 18.4557Z" fill="url(#paint6_linear_402_3568)"/>
<path d="M30.0205 24.4159C30.0737 24.5816 30.1414 24.7424 30.2226 24.8963C31.0701 26.4961 33.1454 26.8526 33.5453 26.9265C34.4708 27.0878 35.4217 27.0195 36.3147 26.7277C37.2077 26.4359 38.0155 25.9295 38.6673 25.2528C39.4937 24.4157 40.0018 23.3161 40.1037 22.1441C40.2057 20.9721 39.8952 19.8012 39.2258 18.8339C39.1106 18.6731 38.939 18.4622 38.4891 17.8449C38.1544 17.4186 37.8494 16.9698 37.5764 16.5016C37.3333 16.0307 37.1626 15.5258 37.0701 15.0039C36.9935 15.667 37.0808 16.3388 37.3243 16.9602C37.5069 17.4102 37.7285 17.6906 38.0002 18.4818C38.1297 18.8054 38.2032 19.1486 38.2175 19.4969C38.2481 19.9098 38.1444 20.3215 37.9219 20.6707C37.7069 20.9989 37.3791 21.2371 37.0005 21.3402C36.7724 21.4007 36.5325 21.4012 36.3041 21.3418C36.0757 21.2824 35.8665 21.165 35.6967 21.0011C35.5133 20.8468 35.3707 20.6497 35.2816 20.4272C35.1991 20.1909 35.1731 19.9385 35.2056 19.6903C35.2213 19.502 35.2555 19.3156 35.3077 19.1339C35.3598 18.9187 35.4244 18.7068 35.5011 18.4992C35.3734 18.6139 35.2576 18.7414 35.1556 18.8796C34.8225 19.357 34.6359 19.9213 34.6188 20.5033C34.579 21.1326 34.6707 21.7634 34.8883 22.3553C34.9861 22.6574 35.1947 22.9335 35.4055 23.529C35.5685 23.9986 35.5706 24.1355 35.5576 24.2398C35.4881 24.7898 34.9491 25.1267 34.7622 25.2462C34.4584 25.4233 34.1222 25.5378 33.7735 25.5832C33.2752 25.7012 32.7591 25.7241 32.2523 25.6505C31.8549 25.5921 31.4696 25.4695 31.1114 25.2875C30.6933 25.0726 30.3224 24.7763 30.0205 24.4159Z" fill="url(#paint7_linear_402_3568)"/>
</g>
<defs>
<linearGradient id="paint0_linear_402_3568" x1="73.0554" y1="23.7735" x2="81.2138" y2="17.6607" gradientUnits="userSpaceOnUse">
<stop stop-color="#232323"/>
<stop offset="0.85" stop-color="white"/>
</linearGradient>
<linearGradient id="paint1_linear_402_3568" x1="74.1997" y1="18.9955" x2="79.7313" y2="26.6463" gradientUnits="userSpaceOnUse">
<stop offset="0.2" stop-color="white"/>
<stop offset="1" stop-color="#2E2E2E"/>
</linearGradient>
<linearGradient id="paint2_linear_402_3568" x1="84.007" y1="16.385" x2="75.7535" y2="22.3688" gradientUnits="userSpaceOnUse">
<stop stop-color="#232323"/>
<stop offset="0.85" stop-color="white"/>
</linearGradient>
<linearGradient id="paint3_linear_402_3568" x1="82.7877" y1="21.1443" x2="77.3771" y2="13.4073" gradientUnits="userSpaceOnUse">
<stop offset="0.2" stop-color="white"/>
<stop offset="1" stop-color="#2E2E2E"/>
</linearGradient>
<linearGradient id="paint4_linear_402_3568" x1="32.4302" y1="25.868" x2="33.4173" y2="7.05922" gradientUnits="userSpaceOnUse">
<stop stop-color="white"/>
<stop offset="0.78" stop-color="#878787"/>
</linearGradient>
<linearGradient id="paint5_linear_402_3568" x1="32.8561" y1="25.0354" x2="36.5566" y2="7.63117" gradientUnits="userSpaceOnUse">
<stop stop-color="#1E1E1E"/>
<stop offset="0.54" stop-color="#C6C6C6"/>
<stop offset="0.67" stop-color="white"/>
</linearGradient>
<linearGradient id="paint6_linear_402_3568" x1="35.9727" y1="21.2011" x2="38.5445" y2="15.6848" gradientUnits="userSpaceOnUse">
<stop stop-color="#212121"/>
<stop offset="0.93" stop-color="#DDDDDD"/>
</linearGradient>
<linearGradient id="paint7_linear_402_3568" x1="32.9151" y1="27.1134" x2="39.6824" y2="16.6944" gradientUnits="userSpaceOnUse">
<stop stop-color="#232323"/>
<stop offset="0.5" stop-color="white"/>
</linearGradient>
<clipPath id="clip0_402_3568">
<rect width="115" height="32" fill="white"/>
</clipPath>
</defs>
</svg>
