<svg width="208" height="208" viewBox="0 0 208 208" fill="none" xmlns="http://www.w3.org/2000/svg">
<g filter="url(#filter0_d_402_3161)">
<path d="M204 100C204 155.228 159.228 200 104 200C48.7715 200 4 155.228 4 100C4 44.7715 48.7715 0 104 0C159.228 0 204 44.7715 204 100Z" fill="#D13FBC" fill-opacity="0.21"/>
<g clip-path="url(#clip0_402_3161)">
<path fill-rule="evenodd" clip-rule="evenodd" d="M44.0002 108.6C43.9402 102.77 46.1602 97.6 51.3702 95.91L51.5002 95.69C51.6525 95.3907 51.8555 95.12 52.1002 94.89C52.4155 94.6586 52.7718 94.4889 53.1502 94.39L53.4402 94.28C78.7002 85 90.0902 71.07 96.6402 61.61C96.6402 70.9 98.9702 83.01 103.07 94.73C107.28 106.73 113.36 118.44 120.78 126.49C113.05 124.29 103.35 121.49 87.5702 123.64C86.9094 125.25 86.5305 126.962 86.4502 128.7C86.3982 129.242 86.4603 129.789 86.6325 130.306C86.8047 130.823 87.0833 131.297 87.4502 131.7L87.6902 131.92C88.6902 132.83 89.1802 133.28 89.4002 134.09C89.5473 135.163 89.5033 136.253 89.2702 137.31L89.1802 137.98C88.8102 140.91 90.2302 141.51 91.6402 142.11C93.0502 142.71 94.1502 143.19 94.7202 144.8C94.7603 144.93 94.7603 145.07 94.7202 145.2C94.1402 148.2 92.2202 149.84 90.2902 151.49C89.8202 151.9 89.3402 152.31 88.9302 152.7H88.8702C84.9502 155.84 82.3002 155 80.2902 152.48C78.7102 150.48 77.6102 147.48 76.5902 144.67L76.1502 143.45C74.4984 138.51 73.1624 133.47 72.1502 128.36L71.8102 126.86C70.9402 127.1 70.0302 127.37 69.0802 127.65C67.8802 128 66.6802 128.38 65.4902 128.76L65.1102 128.9C64.9127 129.03 64.6816 129.099 64.4452 129.099C64.2088 129.099 63.9777 129.03 63.7802 128.9C57.4702 131 52.2002 128 48.6802 123C47.1942 120.89 46.0439 118.562 45.2702 116.1C44.4778 113.677 44.0498 111.149 44.0002 108.6V108.6ZM131.81 57.16C131.494 57.401 131.133 57.5768 130.749 57.6772C130.364 57.7776 129.963 57.8006 129.57 57.7447C129.176 57.6889 128.798 57.5554 128.456 57.352C128.115 57.1486 127.817 56.8794 127.58 56.56L127.51 56.47C127.052 55.826 126.861 55.0293 126.979 54.2477C127.096 53.4661 127.513 52.7606 128.14 52.28C133 48.69 137.84 45.07 142.7 41.56C143.341 41.0959 144.136 40.8955 144.92 41C145.721 41.1227 146.44 41.5579 146.92 42.21V42.26C147.382 42.9053 147.569 43.7071 147.44 44.49C147.383 44.8873 147.246 45.2691 147.038 45.6127C146.83 45.9562 146.555 46.2545 146.23 46.49L131.81 57.16ZM147.6 114.86C147.205 114.852 146.814 114.765 146.452 114.606C146.09 114.446 145.763 114.216 145.49 113.93C145.215 113.647 144.998 113.312 144.852 112.945C144.706 112.578 144.634 112.185 144.64 111.79V111.72C144.64 111.32 144.72 110.924 144.875 110.556C145.03 110.187 145.257 109.853 145.543 109.574C145.83 109.294 146.169 109.074 146.541 108.928C146.913 108.781 147.31 108.711 147.71 108.72C153.08 108.72 158.54 108.92 163.91 109.02C164.717 109.038 165.485 109.374 166.046 109.954C166.608 110.534 166.918 111.313 166.91 112.12C166.894 112.931 166.56 113.703 165.98 114.27C165.696 114.55 165.358 114.77 164.987 114.918C164.616 115.065 164.219 115.138 163.82 115.13L147.63 114.82L147.6 114.86ZM148.07 99.15C147.674 99.1841 147.274 99.139 146.895 99.0172C146.516 98.8955 146.165 98.6995 145.863 98.4408C145.56 98.182 145.312 97.8657 145.133 97.5102C144.954 97.1546 144.848 96.767 144.82 96.37V96.3C144.775 95.508 145.038 94.7294 145.555 94.1272C146.071 93.5251 146.801 93.1462 147.59 93.07C152.59 92.67 157.68 92.24 162.69 91.92C163.491 91.8702 164.279 92.1368 164.885 92.6624C165.491 93.1879 165.866 93.9304 165.93 94.73V94.73C165.962 95.1284 165.914 95.5291 165.788 95.9086C165.663 96.2882 165.463 96.6388 165.2 96.94C164.673 97.5525 163.926 97.9333 163.12 98C158.27 98.48 152.94 98.88 148.07 99.14V99.15ZM145.91 84.56C145.523 84.6698 145.119 84.7023 144.72 84.6557C144.32 84.609 143.934 84.4842 143.583 84.2882C143.232 84.0923 142.923 83.8291 142.674 83.5136C142.424 83.1982 142.24 82.8368 142.13 82.45V82.45C142.021 82.0678 141.988 81.6677 142.034 81.2729C142.081 80.878 142.205 80.4963 142.4 80.15C142.796 79.4428 143.453 78.9187 144.23 78.69C149.44 77.32 154.63 75.64 159.84 74.24C160.222 74.1303 160.622 74.0977 161.017 74.1441C161.412 74.1904 161.794 74.3148 162.14 74.51C162.839 74.899 163.359 75.5445 163.59 76.31V76.31C163.81 77.0896 163.712 77.9244 163.319 78.6324C162.925 79.3404 162.268 79.8643 161.49 80.09L145.9 84.54L145.91 84.56ZM139.61 70.24C139.252 70.4186 138.862 70.5248 138.462 70.5526C138.062 70.5804 137.661 70.5292 137.281 70.402C136.902 70.2748 136.551 70.074 136.248 69.8112C135.946 69.5483 135.699 69.2285 135.52 68.87C135.337 68.5127 135.228 68.1224 135.199 67.7222C135.17 67.322 135.221 66.92 135.35 66.54C135.608 65.7722 136.158 65.1366 136.88 64.77L151.88 57.28C152.237 57.0945 152.628 56.9828 153.029 56.9514C153.431 56.9201 153.834 56.9699 154.216 57.0977C154.597 57.2255 154.949 57.4288 155.251 57.6955C155.552 57.9622 155.797 58.2868 155.97 58.65C156.151 59.0079 156.259 59.3985 156.286 59.7988C156.314 60.199 156.261 60.6006 156.13 60.98C155.872 61.745 155.322 62.3774 154.6 62.74L139.6 70.24H139.61ZM102.75 53C102.88 52.85 103.02 52.71 103.15 52.58C103.561 52.1106 104.065 51.7325 104.63 51.47V51.47C105.276 51.2537 105.969 51.2259 106.63 51.39C108.88 51.75 111.29 53.39 113.74 55.9C119.74 62.09 126.06 73.9 130.56 86.31C135.06 98.72 137.76 111.67 136.41 120.08C135.9 123.21 134.84 125.74 133.1 127.41L133.01 127.48C132.279 128.006 131.432 128.349 130.54 128.48C130.461 128.408 130.378 128.341 130.29 128.28C124.3 124 119 116.9 114.54 108.55C115.68 108.77 117.14 107.92 118.54 106.47C125.54 99.09 122.1 86.19 113.37 83.2C109.81 82 106.27 82 104.87 82.69L104.72 82.77C101.52 70.42 100.61 59 102.75 53Z" fill="url(#paint0_linear_402_3161)"/>
</g>
</g>
<defs>
<filter id="filter0_d_402_3161" x="0" y="0" width="208" height="208" filterUnits="userSpaceOnUse" color-interpolation-filters="sRGB">
<feFlood flood-opacity="0" result="BackgroundImageFix"/>
<feColorMatrix in="SourceAlpha" type="matrix" values="0 0 0 0 0 0 0 0 0 0 0 0 0 0 0 0 0 0 127 0" result="hardAlpha"/>
<feOffset dy="4"/>
<feGaussianBlur stdDeviation="2"/>
<feComposite in2="hardAlpha" operator="out"/>
<feColorMatrix type="matrix" values="0 0 0 0 0 0 0 0 0 0 0 0 0 0 0 0 0 0 0.25 0"/>
<feBlend mode="normal" in2="BackgroundImageFix" result="effect1_dropShadow_402_3161"/>
<feBlend mode="normal" in="SourceGraphic" in2="effect1_dropShadow_402_3161" result="shape"/>
</filter>
<linearGradient id="paint0_linear_402_3161" x1="43.999" y1="40.9729" x2="157.417" y2="163.517" gradientUnits="userSpaceOnUse">
<stop stop-color="#FF0080"/>
<stop offset="1" stop-color="#7928CA"/>
</linearGradient>
<clipPath id="clip0_402_3161">
<rect width="122.88" height="113.8" fill="white" transform="translate(44 41)"/>
</clipPath>
</defs>
</svg>
