<svg width="216" height="287" viewBox="0 0 216 287" fill="none" xmlns="http://www.w3.org/2000/svg">
<g filter="url(#filter0_d_1336_1198)">
<path d="M94.4393 266.932L17.2102 245.493L0 52.4609H189.11L171.882 245.463L94.4393 266.932Z" fill="#264DE4"/>
<path d="M157.132 233.171L171.855 68.2417H94.5549V250.52L157.132 233.171Z" fill="#2965F1"/>
<path d="M39.4517 139.845L41.5735 163.519H94.5527V139.845H39.4517Z" fill="#EBEBEB"/>
<path d="M35.1936 91.9219L37.3457 115.597H94.5581V91.9219H35.1936Z" fill="#EBEBEB"/>
<path d="M94.5584 201.318L94.4546 201.345L68.0881 194.226L66.4025 175.344H42.637L45.9538 212.517L94.4494 225.979L94.5584 225.949V201.318Z" fill="#EBEBEB"/>
<path d="M44.5051 0H73.1791V11.9909H56.4961V23.9819H73.1791V35.9728H44.5051V0Z" fill="black"/>
<path d="M78.9182 0H107.592V10.4269H90.9092V12.5123H107.592V36.4943H78.9182V25.546H95.6013V23.4606H78.9182V0Z" fill="black"/>
<path d="M113.323 0H141.997V10.4269H125.314V12.5123H141.997V36.4943H113.323V25.546H130.006V23.4606H113.323V0Z" fill="black"/>
<path d="M149.508 139.84L153.782 91.9219H94.4768V115.597H127.837L125.683 139.84H94.4768V163.514H123.629L120.881 194.219L94.4768 201.345V225.976L143.011 212.525L143.367 208.525L148.93 146.197L149.508 139.84Z" fill="white"/>
</g>
<defs>
<filter id="filter0_d_1336_1198" x="0" y="0" width="215.11" height="286.932" filterUnits="userSpaceOnUse" color-interpolation-filters="sRGB">
<feFlood flood-opacity="0" result="BackgroundImageFix"/>
<feColorMatrix in="SourceAlpha" type="matrix" values="0 0 0 0 0 0 0 0 0 0 0 0 0 0 0 0 0 0 127 0" result="hardAlpha"/>
<feOffset dx="18" dy="12"/>
<feGaussianBlur stdDeviation="4"/>
<feComposite in2="hardAlpha" operator="out"/>
<feColorMatrix type="matrix" values="0 0 0 0 0 0 0 0 0 0 0 0 0 0 0 0 0 0 0.25 0"/>
<feBlend mode="normal" in2="BackgroundImageFix" result="effect1_dropShadow_1336_1198"/>
<feBlend mode="normal" in="SourceGraphic" in2="effect1_dropShadow_1336_1198" result="shape"/>
</filter>
</defs>
</svg>
